<!--
  Lorenzo's icon sprite - Tabler Icons (MIT license, https://tabler.io/icons),
  self-hosted, hand-assembled from an explicit manifest of only the icons
  actually used (identity.md §17.6, ADR 0098). No build step: adding an
  icon means fetching its real Tabler outline SVG and adding one <symbol>
  block here by hand, same as everything else in apps/brand.

  Usage (identity.md §17.6/§15.6):
    <svg class="icon" aria-hidden="true"><use href="icons.svg#icon-copy"></use></svg>

  See icons.manifest.yaml for the full semantic-name -> Tabler-source
  mapping, including aliases that intentionally reuse one icon's artwork
  for more than one (closely related) semantic name.
-->
<svg xmlns="http://www.w3.org/2000/svg" style="display: none">
  <symbol id="icon-back" viewBox="0 0 24 24" fill="none" stroke="currentColor" stroke-width="2" stroke-linecap="round" stroke-linejoin="round">
    <path d="M5 12l14 0" />
    <path d="M5 12l6 6" />
    <path d="M5 12l6 -6" />
  </symbol>

  <symbol id="icon-close" viewBox="0 0 24 24" fill="none" stroke="currentColor" stroke-width="2" stroke-linecap="round" stroke-linejoin="round">
    <path d="M18 6l-12 12" />
    <path d="M6 6l12 12" />
  </symbol>

  <symbol id="icon-undo" viewBox="0 0 24 24" fill="none" stroke="currentColor" stroke-width="2" stroke-linecap="round" stroke-linejoin="round">
    <path d="M9 14l-4 -4l4 -4" />
    <path d="M5 10h11a4 4 0 1 1 0 8h-1" />
  </symbol>

  <symbol id="icon-save" viewBox="0 0 24 24" fill="none" stroke="currentColor" stroke-width="2" stroke-linecap="round" stroke-linejoin="round">
    <path d="M6 4h10l4 4v10a2 2 0 0 1 -2 2h-12a2 2 0 0 1 -2 -2v-12a2 2 0 0 1 2 -2" />
    <path d="M10 14a2 2 0 1 0 4 0a2 2 0 1 0 -4 0" />
    <path d="M14 4l0 4l-6 0l0 -4" />
  </symbol>

  <symbol id="icon-copy" viewBox="0 0 24 24" fill="none" stroke="currentColor" stroke-width="2" stroke-linecap="round" stroke-linejoin="round">
    <path d="M7 9.667a2.667 2.667 0 0 1 2.667 -2.667h8.666a2.667 2.667 0 0 1 2.667 2.667v8.666a2.667 2.667 0 0 1 -2.667 2.667h-8.666a2.667 2.667 0 0 1 -2.667 -2.667l0 -8.666" />
    <path d="M4.012 16.737a2.005 2.005 0 0 1 -1.012 -1.737v-10c0 -1.1 .9 -2 2 -2h10c.75 0 1.158 .385 1.5 1" />
  </symbol>

  <symbol id="icon-delete" viewBox="0 0 24 24" fill="none" stroke="currentColor" stroke-width="2" stroke-linecap="round" stroke-linejoin="round">
    <path d="M4 7l16 0" />
    <path d="M10 11l0 6" />
    <path d="M14 11l0 6" />
    <path d="M5 7l1 12a2 2 0 0 0 2 2h8a2 2 0 0 0 2 -2l1 -12" />
    <path d="M9 7v-3a1 1 0 0 1 1 -1h4a1 1 0 0 1 1 1v3" />
  </symbol>

  <symbol id="icon-edit" viewBox="0 0 24 24" fill="none" stroke="currentColor" stroke-width="2" stroke-linecap="round" stroke-linejoin="round">
    <path d="M7 7h-1a2 2 0 0 0 -2 2v9a2 2 0 0 0 2 2h9a2 2 0 0 0 2 -2v-1" />
    <path d="M20.385 6.585a2.1 2.1 0 0 0 -2.97 -2.97l-8.415 8.385v3h3l8.385 -8.415" />
    <path d="M16 5l3 3" />
  </symbol>

  <symbol id="icon-search" viewBox="0 0 24 24" fill="none" stroke="currentColor" stroke-width="2" stroke-linecap="round" stroke-linejoin="round">
    <path d="M3 10a7 7 0 1 0 14 0a7 7 0 1 0 -14 0" />
    <path d="M21 21l-6 -6" />
  </symbol>

  <symbol id="icon-add" viewBox="0 0 24 24" fill="none" stroke="currentColor" stroke-width="2" stroke-linecap="round" stroke-linejoin="round">
    <path d="M12 5l0 14" />
    <path d="M5 12l14 0" />
  </symbol>

  <symbol id="icon-give" viewBox="0 0 24 24" fill="none" stroke="currentColor" stroke-width="2" stroke-linecap="round" stroke-linejoin="round">
    <path d="M3 9a1 1 0 0 1 1 -1h16a1 1 0 0 1 1 1v2a1 1 0 0 1 -1 1h-16a1 1 0 0 1 -1 -1l0 -2" />
    <path d="M12 8l0 13" />
    <path d="M19 12v7a2 2 0 0 1 -2 2h-10a2 2 0 0 1 -2 -2v-7" />
    <path d="M7.5 8a2.5 2.5 0 0 1 0 -5a4.8 8 0 0 1 4.5 5a4.8 8 0 0 1 4.5 -5a2.5 2.5 0 0 1 0 5" />
  </symbol>

  <symbol id="icon-move" viewBox="0 0 24 24" fill="none" stroke="currentColor" stroke-width="2" stroke-linecap="round" stroke-linejoin="round">
    <path d="M18 3a3 3 0 0 1 3 3v12a3 3 0 0 1 -3 3" />
    <path d="M3 18v-12a3 3 0 1 1 6 0v12a3 3 0 0 1 -6 0" />
    <path d="M9 12h8" />
    <path d="M14 15l3 -3l-3 -3" />
  </symbol>

  <symbol id="icon-split" viewBox="0 0 24 24" fill="none" stroke="currentColor" stroke-width="2" stroke-linecap="round" stroke-linejoin="round">
    <path d="M7 9.5l-3 1.5l8 4l8 -4l-3 -1.5" />
    <path d="M4 15l8 4l8 -4" />
    <path d="M12 11v-7" />
    <path d="M9 7l3 -3l3 3" />
  </symbol>

  <symbol id="icon-merge-items" viewBox="0 0 24 24" fill="none" stroke="currentColor" stroke-width="2" stroke-linecap="round" stroke-linejoin="round">
    <path d="M6 10l-2 1l8 4l8 -4l-2 -1" />
    <path d="M4 15l8 4l8 -4" />
    <path d="M12 4v7" />
    <path d="M15 8l-3 3l-3 -3" />
  </symbol>

  <symbol id="icon-collection" viewBox="0 0 24 24" fill="none" stroke="currentColor" stroke-width="2" stroke-linecap="round" stroke-linejoin="round">
    <path d="M12 4l-8 4l8 4l8 -4l-8 -4" />
    <path d="M4 12l8 4l8 -4" />
    <path d="M4 16l8 4l8 -4" />
  </symbol>

  <symbol id="icon-select-mode" viewBox="0 0 24 24" fill="none" stroke="currentColor" stroke-width="2" stroke-linecap="round" stroke-linejoin="round">
    <path d="M9 11l3 3l8 -8" />
    <path d="M20 12v6a2 2 0 0 1 -2 2h-12a2 2 0 0 1 -2 -2v-12a2 2 0 0 1 2 -2h9" />
  </symbol>

  <symbol id="icon-select-item" viewBox="0 0 24 24" fill="none" stroke="currentColor" stroke-width="2" stroke-linecap="round" stroke-linejoin="round">
    <path d="M5 12l5 5l10 -10" />
  </symbol>

  <symbol id="icon-upload" viewBox="0 0 24 24" fill="none" stroke="currentColor" stroke-width="2" stroke-linecap="round" stroke-linejoin="round">
    <path d="M4 17v2a2 2 0 0 0 2 2h12a2 2 0 0 0 2 -2v-2" />
    <path d="M7 9l5 -5l5 5" />
    <path d="M12 4l0 12" />
  </symbol>

  <symbol id="icon-campaign" viewBox="0 0 24 24" fill="none" stroke="currentColor" stroke-width="2" stroke-linecap="round" stroke-linejoin="round">
    <path d="M3 12a9 9 0 1 0 18 0a9 9 0 0 0 -18 0" />
    <path d="M3.6 9h16.8" />
    <path d="M3.6 15h16.8" />
    <path d="M11.5 3a17 17 0 0 0 0 18" />
    <path d="M12.5 3a17 17 0 0 1 0 18" />
  </symbol>

  <symbol id="icon-campaign-join" viewBox="0 0 24 24" fill="none" stroke="currentColor" stroke-width="2" stroke-linecap="round" stroke-linejoin="round">
    <path d="M20.985 12.518a9 9 0 1 0 -8.45 8.466" />
    <path d="M3.6 9h16.8" />
    <path d="M3.6 15h11.4" />
    <path d="M11.5 3a17 17 0 0 0 0 18" />
    <path d="M12.5 3a16.998 16.998 0 0 1 2.283 12.157" />
    <path d="M16 19h6" />
    <path d="M19 16v6" />
  </symbol>

  <symbol id="icon-campaign-leave" viewBox="0 0 24 24" fill="none" stroke="currentColor" stroke-width="2" stroke-linecap="round" stroke-linejoin="round">
    <path d="M20.483 15.006a9 9 0 1 0 -7.958 5.978" />
    <path d="M3.6 9h16.8" />
    <path d="M3.6 15h16.8" />
    <path d="M11.5 3a17 17 0 0 0 0 18" />
    <path d="M12.5 3a16.94 16.94 0 0 1 2.307 12" />
    <path d="M16 19h6" />
  </symbol>

  <symbol id="icon-revoke" viewBox="0 0 24 24" fill="none" stroke="currentColor" stroke-width="2" stroke-linecap="round" stroke-linejoin="round">
    <path d="M8 7a4 4 0 1 0 8 0a4 4 0 0 0 -8 0" />
    <path d="M6 21v-2a4 4 0 0 1 4 -4h3.5" />
    <path d="M22 22l-5 -5" />
    <path d="M17 22l5 -5" />
  </symbol>

  <symbol id="icon-unassign" viewBox="0 0 24 24" fill="none" stroke="currentColor" stroke-width="2" stroke-linecap="round" stroke-linejoin="round">
    <path d="M8 7a4 4 0 1 0 8 0a4 4 0 0 0 -8 0" />
    <path d="M6 21v-2a4 4 0 0 1 4 -4h4c.348 0 .686 .045 1.009 .128" />
    <path d="M16 19h6" />
  </symbol>

  <symbol id="icon-reassign" viewBox="0 0 24 24" fill="none" stroke="currentColor" stroke-width="2" stroke-linecap="round" stroke-linejoin="round">
    <path d="M8 7a4 4 0 1 0 8 0a4 4 0 0 0 -8 0" />
    <path d="M16 19h6" />
    <path d="M19 16v6" />
    <path d="M6 21v-2a4 4 0 0 1 4 -4h4" />
  </symbol>

  <symbol id="icon-handoff" viewBox="0 0 24 24" fill="none" stroke="currentColor" stroke-width="2" stroke-linecap="round" stroke-linejoin="round">
    <path d="M2 4h9.914a3 3 0 0 1 1.92 .695l5.166 4.305" />
    <path d="M11.15 9h8.85a2 2 0 0 1 2 2v7a2 2 0 0 1 -2 2h-13a2 2 0 0 1 -2 -2v-8.7" />
    <path d="M3 8l7.2 4.7a1.803 1.803 0 0 0 2 -3l-4.2 -2.7" />
    <path d="M5 16h17" />
  </symbol>

  <symbol id="icon-login" viewBox="0 0 24 24" fill="none" stroke="currentColor" stroke-width="2" stroke-linecap="round" stroke-linejoin="round">
    <path d="M15 8v-2a2 2 0 0 0 -2 -2h-7a2 2 0 0 0 -2 2v12a2 2 0 0 0 2 2h7a2 2 0 0 0 2 -2v-2" />
    <path d="M21 12h-13l3 -3" />
    <path d="M11 15l-3 -3" />
  </symbol>

  <symbol id="icon-logout" viewBox="0 0 24 24" fill="none" stroke="currentColor" stroke-width="2" stroke-linecap="round" stroke-linejoin="round">
    <path d="M14 8v-2a2 2 0 0 0 -2 -2h-7a2 2 0 0 0 -2 2v12a2 2 0 0 0 2 2h7a2 2 0 0 0 2 -2v-2" />
    <path d="M9 12h12l-3 -3" />
    <path d="M18 15l3 -3" />
  </symbol>

  <symbol id="icon-notifications" viewBox="0 0 24 24" fill="none" stroke="currentColor" stroke-width="2" stroke-linecap="round" stroke-linejoin="round">
    <path d="M10 5a2 2 0 1 1 4 0a7 7 0 0 1 4 6v3a4 4 0 0 0 2 3h-16a4 4 0 0 0 2 -3v-3a7 7 0 0 1 4 -6" />
    <path d="M9 17v1a3 3 0 0 0 6 0v-1" />
  </symbol>

  <symbol id="icon-refresh" viewBox="0 0 24 24" fill="none" stroke="currentColor" stroke-width="2" stroke-linecap="round" stroke-linejoin="round">
    <path d="M20 11a8.1 8.1 0 0 0 -15.5 -2m-.5 -4v4h4" />
    <path d="M4 13a8.1 8.1 0 0 0 15.5 2m.5 4v-4h-4" />
  </symbol>

  <symbol id="icon-expand" viewBox="0 0 24 24" fill="none" stroke="currentColor" stroke-width="2" stroke-linecap="round" stroke-linejoin="round">
    <path d="M6 9l6 6l6 -6" />
  </symbol>

  <symbol id="icon-collapse" viewBox="0 0 24 24" fill="none" stroke="currentColor" stroke-width="2" stroke-linecap="round" stroke-linejoin="round">
    <path d="M6 15l6 -6l6 6" />
  </symbol>

  <symbol id="icon-private" viewBox="0 0 24 24" fill="none" stroke="currentColor" stroke-width="2" stroke-linecap="round" stroke-linejoin="round">
    <path d="M5 13a2 2 0 0 1 2 -2h10a2 2 0 0 1 2 2v6a2 2 0 0 1 -2 2h-10a2 2 0 0 1 -2 -2v-6" />
    <path d="M11 16a1 1 0 1 0 2 0a1 1 0 0 0 -2 0" />
    <path d="M8 11v-4a4 4 0 1 1 8 0v4" />
  </symbol>

  <symbol id="icon-history" viewBox="0 0 24 24" fill="none" stroke="currentColor" stroke-width="2" stroke-linecap="round" stroke-linejoin="round">
    <path d="M12 8l0 4l2 2" />
    <path d="M3.05 11a9 9 0 1 1 .5 4m-.5 5v-5h5" />
  </symbol>

  <symbol id="icon-ancestry" viewBox="0 0 24 24" fill="none" stroke="currentColor" stroke-width="2" stroke-linecap="round" stroke-linejoin="round">
    <path d="M5 18a2 2 0 1 0 4 0a2 2 0 1 0 -4 0" />
    <path d="M5 6a2 2 0 1 0 4 0a2 2 0 1 0 -4 0" />
    <path d="M15 6a2 2 0 1 0 4 0a2 2 0 1 0 -4 0" />
    <path d="M7 8l0 8" />
    <path d="M9 18h6a2 2 0 0 0 2 -2v-5" />
    <path d="M14 14l3 -3l3 3" />
  </symbol>

  <symbol id="icon-container" viewBox="0 0 24 24" fill="none" stroke="currentColor" stroke-width="2" stroke-linecap="round" stroke-linejoin="round">
    <path d="M12 3l8 4.5l0 9l-8 4.5l-8 -4.5l0 -9l8 -4.5" />
    <path d="M12 12l8 -4.5" />
    <path d="M12 12l0 9" />
    <path d="M12 12l-8 -4.5" />
  </symbol>

  <symbol id="icon-settings" viewBox="0 0 24 24" fill="none" stroke="currentColor" stroke-width="2" stroke-linecap="round" stroke-linejoin="round">
    <path d="M10.325 4.317c.426 -1.756 2.924 -1.756 3.35 0a1.724 1.724 0 0 0 2.573 1.066c1.543 -.94 3.31 .826 2.37 2.37a1.724 1.724 0 0 0 1.065 2.572c1.756 .426 1.756 2.924 0 3.35a1.724 1.724 0 0 0 -1.066 2.573c.94 1.543 -.826 3.31 -2.37 2.37a1.724 1.724 0 0 0 -2.572 1.065c-.426 1.756 -2.924 1.756 -3.35 0a1.724 1.724 0 0 0 -2.573 -1.066c-1.543 .94 -3.31 -.826 -2.37 -2.37a1.724 1.724 0 0 0 -1.065 -2.572c-1.756 -.426 -1.756 -2.924 0 -3.35a1.724 1.724 0 0 0 1.066 -2.573c-.94 -1.543 .826 -3.31 2.37 -2.37c1 .608 2.296 .07 2.572 -1.065" />
    <path d="M9 12a3 3 0 1 0 6 0a3 3 0 0 0 -6 0" />
  </symbol>

  <symbol id="icon-map" viewBox="0 0 24 24" fill="none" stroke="currentColor" stroke-width="2" stroke-linecap="round" stroke-linejoin="round">
    <path d="M3 7l6 -3l6 3l6 -3v13l-6 3l-6 -3l-6 3v-13" />
    <path d="M9 4v13" />
    <path d="M15 7v13" />
  </symbol>

  <symbol id="icon-location" viewBox="0 0 24 24" fill="none" stroke="currentColor" stroke-width="2" stroke-linecap="round" stroke-linejoin="round">
    <path d="M14.828 10.828a4 4 0 1 0 -5.656 0l2.828 2.829l2.828 -2.829" />
    <path d="M12 8v.01" />
    <path d="M6 12h-.142a2 2 0 0 0 -1.923 1.45l-.858 3a2 2 0 0 0 1.924 2.55h13.999a2 2 0 0 0 1.923 -2.55l-.857 -3a2 2 0 0 0 -1.923 -1.45h-.143" />
  </symbol>

  <symbol id="icon-visibility" viewBox="0 0 24 24" fill="none" stroke="currentColor" stroke-width="2" stroke-linecap="round" stroke-linejoin="round">
    <path d="M4 12v4h16v-4l-16 0" />
    <path d="M6 16v4h4v-4m0 -4v-6l-2 -2l-2 2v6" />
    <path d="M14 16v4h4v-4m0 -4v-6l-2 -2l-2 2v6" />
  </symbol>

  <symbol id="icon-eye" viewBox="0 0 24 24" fill="none" stroke="currentColor" stroke-width="2" stroke-linecap="round" stroke-linejoin="round">
    <path d="M10 12a2 2 0 1 0 4 0a2 2 0 0 0 -4 0" />
    <path d="M21 12c-2.4 4 -5.4 6 -9 6c-3.6 0 -6.6 -2 -9 -6c2.4 -4 5.4 -6 9 -6c3.6 0 6.6 2 9 6" />
  </symbol>

  <symbol id="icon-eye-off" viewBox="0 0 24 24" fill="none" stroke="currentColor" stroke-width="2" stroke-linecap="round" stroke-linejoin="round">
    <path d="M10.585 10.587a2 2 0 0 0 2.829 2.828" />
    <path d="M16.681 16.673a8.717 8.717 0 0 1 -4.681 1.327c-3.6 0 -6.6 -2 -9 -6c1.272 -2.12 2.712 -3.678 4.32 -4.674m2.86 -1.146a9.055 9.055 0 0 1 1.82 -.18c3.6 0 6.6 2 9 6c-.666 1.11 -1.379 2.067 -2.138 2.87" />
    <path d="M3 3l18 18" />
  </symbol>
</svg>
